<svg xmlns="http://www.w3.org/2000/svg" viewBox="0 0 100 100" preserveAspectRatio="xMidYMid" width="200" height="200" style="shape-rendering: auto; display: block; background: rgb(255, 255, 255);" xmlns:xlink="http://www.w3.org/1999/xlink"><g><g transform="rotate(0 50 50)">
  <rect fill="#c7053d" height="12" width="6" ry="6" rx="3" y="24" x="47">
    <animate repeatCount="indefinite" begin="-0.8333333333333333s" dur="0.9090909090909091s" keyTimes="0;1" values="1;0" attributeName="opacity"></animate>
  </rect>
</g><g transform="rotate(30 50 50)">
  <rect fill="#c7053d" height="12" width="6" ry="6" rx="3" y="24" x="47">
    <animate repeatCount="indefinite" begin="-0.7575757575757576s" dur="0.9090909090909091s" keyTimes="0;1" values="1;0" attributeName="opacity"></animate>
  </rect>
</g><g transform="rotate(60 50 50)">
  <rect fill="#c7053d" height="12" width="6" ry="6" rx="3" y="24" x="47">
    <animate repeatCount="indefinite" begin="-0.6818181818181818s" dur="0.9090909090909091s" keyTimes="0;1" values="1;0" attributeName="opacity"></animate>
  </rect>
</g><g transform="rotate(90 50 50)">
  <rect fill="#c7053d" height="12" width="6" ry="6" rx="3" y="24" x="47">
    <animate repeatCount="indefinite" begin="-0.606060606060606s" dur="0.9090909090909091s" keyTimes="0;1" values="1;0" attributeName="opacity"></animate>
  </rect>
</g><g transform="rotate(120 50 50)">
  <rect fill="#c7053d" height="12" width="6" ry="6" rx="3" y="24" x="47">
    <animate repeatCount="indefinite" begin="-0.5303030303030303s" dur="0.9090909090909091s" keyTimes="0;1" values="1;0" attributeName="opacity"></animate>
  </rect>
</g><g transform="rotate(150 50 50)">
  <rect fill="#c7053d" height="12" width="6" ry="6" rx="3" y="24" x="47">
    <animate repeatCount="indefinite" begin="-0.45454545454545453s" dur="0.9090909090909091s" keyTimes="0;1" values="1;0" attributeName="opacity"></animate>
  </rect>
</g><g transform="rotate(180 50 50)">
  <rect fill="#c7053d" height="12" width="6" ry="6" rx="3" y="24" x="47">
    <animate repeatCount="indefinite" begin="-0.3787878787878788s" dur="0.9090909090909091s" keyTimes="0;1" values="1;0" attributeName="opacity"></animate>
  </rect>
</g><g transform="rotate(210 50 50)">
  <rect fill="#c7053d" height="12" width="6" ry="6" rx="3" y="24" x="47">
    <animate repeatCount="indefinite" begin="-0.303030303030303s" dur="0.9090909090909091s" keyTimes="0;1" values="1;0" attributeName="opacity"></animate>
  </rect>
</g><g transform="rotate(240 50 50)">
  <rect fill="#c7053d" height="12" width="6" ry="6" rx="3" y="24" x="47">
    <animate repeatCount="indefinite" begin="-0.22727272727272727s" dur="0.9090909090909091s" keyTimes="0;1" values="1;0" attributeName="opacity"></animate>
  </rect>
</g><g transform="rotate(270 50 50)">
  <rect fill="#c7053d" height="12" width="6" ry="6" rx="3" y="24" x="47">
    <animate repeatCount="indefinite" begin="-0.1515151515151515s" dur="0.9090909090909091s" keyTimes="0;1" values="1;0" attributeName="opacity"></animate>
  </rect>
</g><g transform="rotate(300 50 50)">
  <rect fill="#c7053d" height="12" width="6" ry="6" rx="3" y="24" x="47">
    <animate repeatCount="indefinite" begin="-0.07575757575757575s" dur="0.9090909090909091s" keyTimes="0;1" values="1;0" attributeName="opacity"></animate>
  </rect>
</g><g transform="rotate(330 50 50)">
  <rect fill="#c7053d" height="12" width="6" ry="6" rx="3" y="24" x="47">
    <animate repeatCount="indefinite" begin="0s" dur="0.9090909090909091s" keyTimes="0;1" values="1;0" attributeName="opacity"></animate>
  </rect>
</g><g></g></g><!-- [ldio] generated by https://loading.io --></svg>